<svg width="150" height="30" viewBox="0 0 2500 500" fill="none" xmlns="http://www.w3.org/2000/svg"><path d="M308.374 408.042C318.591 408.042 327.786 416.246 327.786 427.526C327.786 437.78 319.612 447.009 308.374 447.009C298.157 447.009 288.962 438.805 288.962 427.526C288.962 416.246 298.157 408.042 308.374 408.042ZM608.744 289.093C598.527 289.093 589.332 280.89 589.332 269.61C589.332 259.356 597.505 250.127 608.744 250.127C618.96 250.127 628.155 258.331 628.155 269.61C628.155 279.865 618.96 289.093 608.744 289.093ZM608.744 210.136C576.05 210.136 549.487 236.797 549.487 269.61C549.487 275.763 550.509 281.916 552.552 288.068L357.414 392.661C346.176 376.254 327.786 367.026 308.374 367.026C285.897 367.026 265.464 380.356 255.247 399.839L79.521 307.551C61.131 297.297 46.8277 267.56 48.8711 238.848C49.8927 224.492 55.0011 213.212 62.1527 209.111C67.261 206.034 72.3694 207.06 79.521 210.136C126.518 234.746 279.767 315.754 285.897 318.831C296.114 322.932 301.222 324.983 318.591 316.78L633.263 152.712C638.372 150.661 643.48 146.56 643.48 139.382C643.48 130.153 634.285 126.051 634.285 126.051C615.895 117.848 588.31 104.517 561.747 92.2123C504.534 65.5513 439.147 34.7886 410.541 19.4073C386.021 6.07681 365.587 17.3565 362.522 19.4073C232.771 85.0343 53.9794 173.221 43.7627 179.373C26.3944 189.627 15.1561 211.161 14.1345 237.822C12.0911 279.865 33.5461 323.958 64.196 339.339L250.139 435.729C254.226 464.441 279.767 487 308.374 487C341.067 487 366.609 461.364 367.631 428.551L571.964 317.805C582.18 326.009 595.462 330.11 608.744 330.11C641.437 330.11 668 303.449 668 270.636C668 236.797 641.437 210.136 608.744 210.136Z" fill="white"></path></svg>